<svg width="40" height="40" viewBox="0 0 40 40" fill="none" xmlns="http://www.w3.org/2000/svg">
<mask id="mask0_10_2" style="mask-type:luminance" maskUnits="userSpaceOnUse" x="0" y="0" width="40" height="40">
<path d="M40 0H0V40H40V0Z" fill="white"/>
</mask>
<g mask="url(#mask0_10_2)">
<path d="M19.4719 29.5844L19.8844 29.0931C20.3387 28.5519 21.1469 28.4812 21.6881 28.9356L22.6706 29.76C23.2119 30.2144 23.2825 31.0225 22.8287 31.5637L22.4162 32.055L18.7106 36.465C17.4944 37.9112 15.6956 38.75 13.8075 38.75C12.3037 38.75 10.8444 38.2187 9.69186 37.2525L4.78936 33.1369C3.34311 31.9206 2.50436 30.1225 2.50436 28.2275C2.50436 26.7237 3.03561 25.2706 4.00874 24.1187L11.4137 15.2987C11.4137 15.2925 11.4137 15.2925 11.4137 15.2925C12.63 13.8462 14.4287 13.0137 16.3169 13.0137C17.8206 13.0137 19.28 13.545 20.4319 14.5119L22.8575 16.5469L23.3444 16.9575C23.885 17.4125 23.955 18.2219 23.5006 18.7631L22.6819 19.7394C22.2281 20.2806 21.42 20.3512 20.8787 19.8975L20.3875 19.485L17.9612 17.4494C17.5006 17.0656 16.9181 16.8544 16.3169 16.8544C15.5612 16.8544 14.8444 17.1869 14.3581 17.7631L6.94624 26.5894C6.56249 27.05 6.34499 27.6325 6.34499 28.2344C6.34499 28.9894 6.68374 29.7062 7.25999 30.1925L12.1625 34.3081C12.6237 34.6987 13.2062 34.91 13.8075 34.91C14.5631 34.91 15.28 34.5769 15.7662 33.9944L19.4719 29.5844Z" fill="url(#paint0_linear_10_2)"/>
<path d="M20.5287 10.4156L20.1162 10.9069C19.6625 11.4481 18.8544 11.5187 18.3131 11.0644L17.33 10.24C16.7887 9.78563 16.7181 8.9775 17.1725 8.43625L17.585 7.945L21.2906 3.535C22.5069 2.08875 24.305 1.25 26.1931 1.25C27.6975 1.25 29.1569 1.78125 30.3087 2.7475L35.2112 6.86312C36.6581 8.07937 37.4962 9.8775 37.4962 11.7725C37.4962 13.2763 36.965 14.7294 35.9925 15.8812L28.5869 24.7012C28.5869 24.7075 28.5869 24.7075 28.5869 24.7075C27.3706 26.1538 25.5725 26.9863 23.6844 26.9863C22.18 26.9863 20.7206 26.455 19.5687 25.4881L17.1431 23.4531L16.6562 23.0425C16.1162 22.5875 16.0462 21.7781 16.5 21.2369L17.3187 20.2606C17.7731 19.7194 18.5806 19.6488 19.1219 20.1025L19.6137 20.515L22.0394 22.5506C22.5 22.9344 23.0825 23.1456 23.6844 23.1456C24.4394 23.1456 25.1562 22.8131 25.6431 22.2369L33.0544 13.4106C33.4387 12.95 33.6562 12.3675 33.6562 11.7656C33.6562 11.0106 33.3169 10.2938 32.7406 9.8075L27.8381 5.69188C27.3775 5.30125 26.795 5.09 26.1931 5.09C25.4381 5.09 24.7212 5.42313 24.235 6.00563L20.5287 10.4156Z" fill="url(#paint1_linear_10_2)"/>
</g>
<defs>
<linearGradient id="paint0_linear_10_2" x1="13.1524" y1="13.0137" x2="13.1524" y2="38.75" gradientUnits="userSpaceOnUse">
<stop stop-color="#FA0066"/>
<stop offset="0.5" stop-color="#FB6533"/>
<stop offset="1" stop-color="#FBC900"/>
</linearGradient>
<linearGradient id="paint1_linear_10_2" x1="26.8484" y1="1.25" x2="26.8484" y2="26.9862" gradientUnits="userSpaceOnUse">
<stop stop-color="#FA0066"/>
<stop offset="0.5" stop-color="#FB6533"/>
<stop offset="1" stop-color="#FBC900"/>
</linearGradient>
</defs>
</svg>
