<svg width="170" height="40" viewBox="0 0 170 40" fill="none" xmlns="http://www.w3.org/2000/svg">
<path d="M48.592 16.044C49.744 16.044 50.72 16.196 51.52 16.5C52.32 16.796 53.06 17.224 53.74 17.784L52.072 19.764C51.6 19.364 51.08 19.06 50.512 18.852C49.952 18.644 49.352 18.54 48.712 18.54C47.944 18.54 47.236 18.744 46.588 19.152C45.948 19.56 45.432 20.216 45.04 21.12C44.656 22.016 44.464 23.2 44.464 24.672C44.464 26.12 44.648 27.292 45.016 28.188C45.392 29.084 45.9 29.74 46.54 30.156C47.188 30.564 47.92 30.768 48.736 30.768C49.6 30.768 50.316 30.616 50.884 30.312C51.452 30.008 51.964 29.676 52.42 29.316L53.968 31.272C53.384 31.848 52.652 32.34 51.772 32.748C50.9 33.156 49.84 33.36 48.592 33.36C47.144 33.36 45.852 33.028 44.716 32.364C43.58 31.7 42.688 30.724 42.04 29.436C41.392 28.148 41.068 26.56 41.068 24.672C41.068 22.816 41.4 21.248 42.064 19.968C42.736 18.68 43.64 17.704 44.776 17.04C45.92 16.376 47.192 16.044 48.592 16.044ZM61.6026 19.932C62.8666 19.932 63.9386 20.208 64.8186 20.76C65.6986 21.312 66.3666 22.092 66.8226 23.1C67.2866 24.1 67.5186 25.272 67.5186 26.616C67.5186 27.992 67.2866 29.184 66.8226 30.192C66.3586 31.2 65.6866 31.98 64.8066 32.532C63.9266 33.084 62.8546 33.36 61.5906 33.36C60.3346 33.36 59.2626 33.092 58.3746 32.556C57.4946 32.012 56.8226 31.24 56.3586 30.24C55.8946 29.232 55.6626 28.032 55.6626 26.64C55.6626 25.312 55.8946 24.144 56.3586 23.136C56.8226 22.128 57.4986 21.344 58.3866 20.784C59.2746 20.216 60.3466 19.932 61.6026 19.932ZM61.6026 22.32C60.7146 22.32 60.0506 22.668 59.6106 23.364C59.1786 24.06 58.9626 25.152 58.9626 26.64C58.9626 28.144 59.1786 29.244 59.6106 29.94C60.0426 30.628 60.7026 30.972 61.5906 30.972C62.4786 30.972 63.1386 30.628 63.5706 29.94C64.0026 29.244 64.2186 28.136 64.2186 26.616C64.2186 25.136 64.0026 24.052 63.5706 23.364C63.1386 22.668 62.4826 22.32 61.6026 22.32ZM78.0813 14.88L81.2493 15.216V33H78.4413L78.2493 31.5C77.8573 32.06 77.3653 32.512 76.7733 32.856C76.1813 33.192 75.4933 33.36 74.7093 33.36C73.6373 33.36 72.7493 33.08 72.0453 32.52C71.3493 31.96 70.8293 31.176 70.4853 30.168C70.1493 29.152 69.9813 27.972 69.9813 26.628C69.9813 25.332 70.1813 24.18 70.5813 23.172C70.9813 22.164 71.5573 21.372 72.3092 20.796C73.0693 20.22 73.9693 19.932 75.0093 19.932C75.6333 19.932 76.2013 20.04 76.7133 20.256C77.2253 20.472 77.6813 20.792 78.0813 21.216V14.88ZM75.8613 22.296C75.0613 22.296 74.4293 22.644 73.9653 23.34C73.5093 24.028 73.2813 25.128 73.2813 26.64C73.2813 27.704 73.3773 28.556 73.5693 29.196C73.7613 29.828 74.0333 30.284 74.3853 30.564C74.7373 30.844 75.1533 30.984 75.6333 30.984C76.1613 30.984 76.6253 30.828 77.0253 30.516C77.4333 30.196 77.7853 29.8 78.0813 29.328V23.544C77.7853 23.152 77.4533 22.848 77.0853 22.632C76.7253 22.408 76.3173 22.296 75.8613 22.296ZM87.8039 27.612C87.8679 28.404 88.0479 29.048 88.3439 29.544C88.6479 30.04 89.0359 30.404 89.5079 30.636C89.9799 30.868 90.5039 30.984 91.0799 30.984C91.6879 30.984 92.2599 30.888 92.7959 30.696C93.3319 30.504 93.8599 30.236 94.3799 29.892L95.6999 31.704C95.1079 32.2 94.3999 32.6 93.5759 32.904C92.7599 33.208 91.8599 33.36 90.8759 33.36C89.4999 33.36 88.3399 33.076 87.3959 32.508C86.4599 31.94 85.7519 31.152 85.2719 30.144C84.7919 29.136 84.5519 27.976 84.5519 26.664C84.5519 25.4 84.7879 24.26 85.2599 23.244C85.7319 22.228 86.4119 21.424 87.2999 20.832C88.1879 20.232 89.2599 19.932 90.5159 19.932C91.6839 19.932 92.6919 20.188 93.5399 20.7C94.3879 21.212 95.0439 21.948 95.5079 22.908C95.9719 23.86 96.2039 25.008 96.2039 26.352C96.2039 26.568 96.1959 26.788 96.1799 27.012C96.1719 27.236 96.1599 27.436 96.1439 27.612H87.8039ZM90.5279 22.164C89.7599 22.164 89.1279 22.44 88.6319 22.992C88.1439 23.536 87.8559 24.4 87.7679 25.584H93.1199C93.1039 24.512 92.8799 23.676 92.4479 23.076C92.0239 22.468 91.3839 22.164 90.5279 22.164ZM105.891 30.816C106.451 30.816 106.975 30.712 107.463 30.504C107.959 30.296 108.435 30.032 108.891 29.712L110.331 31.74C109.771 32.212 109.095 32.6 108.303 32.904C107.511 33.208 106.663 33.36 105.759 33.36C104.431 33.36 103.291 33.084 102.339 32.532C101.395 31.972 100.667 31.196 100.155 30.204C99.6505 29.204 99.3985 28.044 99.3985 26.724C99.3985 25.42 99.6545 24.256 100.167 23.232C100.687 22.2 101.423 21.392 102.375 20.808C103.335 20.224 104.479 19.932 105.807 19.932C106.719 19.932 107.543 20.064 108.279 20.328C109.023 20.584 109.703 20.968 110.319 21.48L108.915 23.424C108.443 23.096 107.955 22.848 107.451 22.68C106.955 22.504 106.439 22.416 105.903 22.416C104.967 22.416 104.203 22.756 103.611 23.436C103.027 24.108 102.735 25.204 102.735 26.724C102.735 27.724 102.871 28.524 103.143 29.124C103.423 29.724 103.799 30.156 104.271 30.42C104.751 30.684 105.291 30.816 105.891 30.816ZM114.005 33V30.804H115.793V22.476H114.005V20.292H118.205L118.793 23.208C119.257 22.128 119.841 21.316 120.545 20.772C121.249 20.22 122.133 19.944 123.197 19.944C123.605 19.944 123.965 19.976 124.277 20.04C124.597 20.104 124.901 20.188 125.189 20.292L124.241 22.956C123.993 22.892 123.757 22.844 123.533 22.812C123.309 22.772 123.057 22.752 122.777 22.752C121.897 22.752 121.129 23.096 120.473 23.784C119.825 24.464 119.321 25.388 118.961 26.556V30.804H121.493V33H114.005ZM122.513 25.248V21.876L122.945 20.292H125.189L124.625 25.248H122.513ZM138.416 29.652C138.416 30.14 138.488 30.496 138.632 30.72C138.776 30.936 139.008 31.1 139.328 31.212L138.644 33.336C137.964 33.264 137.384 33.096 136.904 32.832C136.432 32.56 136.068 32.156 135.812 31.62C135.332 32.204 134.724 32.64 133.988 32.928C133.26 33.216 132.496 33.36 131.696 33.36C130.4 33.36 129.372 32.992 128.612 32.256C127.852 31.52 127.472 30.564 127.472 29.388C127.472 28.036 128 26.996 129.056 26.268C130.12 25.532 131.624 25.164 133.568 25.164H135.344V24.48C135.344 23.728 135.112 23.184 134.648 22.848C134.184 22.504 133.516 22.332 132.644 22.332C132.236 22.332 131.724 22.388 131.108 22.5C130.5 22.604 129.872 22.768 129.224 22.992L128.468 20.82C129.276 20.516 130.088 20.292 130.904 20.148C131.728 20.004 132.476 19.932 133.148 19.932C134.932 19.932 136.256 20.312 137.12 21.072C137.984 21.824 138.416 22.892 138.416 24.276V29.652ZM132.728 31.068C133.208 31.068 133.692 30.932 134.18 30.66C134.676 30.388 135.064 30.008 135.344 29.52V27.048H134.096C132.92 27.048 132.068 27.236 131.54 27.612C131.02 27.988 130.76 28.52 130.76 29.208C130.76 29.8 130.928 30.26 131.264 30.588C131.6 30.908 132.088 31.068 132.728 31.068ZM150.55 14.88C151.398 14.88 152.15 14.948 152.806 15.084C153.462 15.22 154.058 15.404 154.594 15.636L153.682 17.772C153.258 17.596 152.814 17.468 152.35 17.388C151.886 17.308 151.422 17.268 150.958 17.268C150.158 17.268 149.574 17.42 149.206 17.724C148.846 18.02 148.666 18.496 148.666 19.152V21.156H152.866L152.518 23.424H148.666V33H145.51V23.424H142.714V21.156H145.51V19.08C145.51 18.256 145.71 17.532 146.11 16.908C146.51 16.276 147.086 15.78 147.838 15.42C148.598 15.06 149.502 14.88 150.55 14.88ZM168.025 32.292C167.553 32.604 166.981 32.86 166.309 33.06C165.637 33.26 164.909 33.36 164.125 33.36C162.573 33.36 161.405 32.96 160.621 32.16C159.837 31.352 159.445 30.28 159.445 28.944V22.536H156.685V20.292H159.445V17.496L162.613 17.112V20.292H166.813L166.489 22.536H162.613V28.932C162.613 29.588 162.773 30.068 163.093 30.372C163.413 30.676 163.929 30.828 164.641 30.828C165.097 30.828 165.513 30.776 165.889 30.672C166.273 30.56 166.621 30.42 166.933 30.252L168.025 32.292Z" fill="black"/>
<mask id="mask0_6_41" style="mask-type:luminance" maskUnits="userSpaceOnUse" x="0" y="0" width="40" height="40">
<path d="M40 0H0V40H40V0Z" fill="white"/>
</mask>
<g mask="url(#mask0_6_41)">
<path d="M19.4719 29.5844L19.8844 29.0931C20.3388 28.5519 21.1469 28.4812 21.6881 28.9356L22.6706 29.76C23.2119 30.2144 23.2825 31.0225 22.8288 31.5637L22.4163 32.055L18.7106 36.465C17.4944 37.9112 15.6956 38.75 13.8075 38.75C12.3038 38.75 10.8444 38.2187 9.69188 37.2525L4.78938 33.1369C3.34313 31.9206 2.50438 30.1225 2.50438 28.2275C2.50438 26.7237 3.03563 25.2706 4.00875 24.1187L11.4138 15.2987C11.4138 15.2925 11.4138 15.2925 11.4138 15.2925C12.63 13.8462 14.4288 13.0137 16.3169 13.0137C17.8206 13.0137 19.28 13.545 20.4319 14.5119L22.8575 16.5469L23.3444 16.9575C23.885 17.4125 23.955 18.2219 23.5006 18.7631L22.6819 19.7394C22.2281 20.2806 21.42 20.3512 20.8788 19.8975L20.3875 19.485L17.9613 17.4494C17.5006 17.0656 16.9181 16.8544 16.3169 16.8544C15.5613 16.8544 14.8444 17.1869 14.3581 17.7631L6.94625 26.5894C6.5625 27.05 6.34501 27.6325 6.34501 28.2344C6.34501 28.9894 6.68375 29.7062 7.26 30.1925L12.1625 34.3081C12.6238 34.6987 13.2063 34.91 13.8075 34.91C14.5631 34.91 15.28 34.5769 15.7663 33.9944L19.4719 29.5844Z" fill="url(#paint0_linear_6_41)"/>
<path d="M20.5288 10.4156L20.1163 10.9069C19.6625 11.4481 18.8544 11.5187 18.3131 11.0644L17.33 10.24C16.7888 9.78563 16.7181 8.9775 17.1725 8.43625L17.585 7.945L21.2906 3.535C22.5069 2.08875 24.305 1.25 26.1931 1.25C27.6975 1.25 29.1569 1.78125 30.3088 2.7475L35.2113 6.86312C36.6581 8.07937 37.4963 9.8775 37.4963 11.7725C37.4963 13.2762 36.965 14.7294 35.9925 15.8813L28.5869 24.7013C28.5869 24.7075 28.5869 24.7075 28.5869 24.7075C27.3706 26.1538 25.5725 26.9863 23.6844 26.9863C22.18 26.9863 20.7206 26.455 19.5688 25.4881L17.1431 23.4531L16.6563 23.0425C16.1163 22.5875 16.0463 21.7781 16.5 21.2369L17.3188 20.2606C17.7731 19.7194 18.5806 19.6488 19.1219 20.1025L19.6138 20.515L22.0394 22.5506C22.5 22.9344 23.0825 23.1456 23.6844 23.1456C24.4394 23.1456 25.1563 22.8131 25.6431 22.2369L33.0544 13.4106C33.4388 12.95 33.6563 12.3675 33.6563 11.7656C33.6563 11.0106 33.3169 10.2937 32.7406 9.8075L27.8381 5.69188C27.3775 5.30125 26.795 5.09 26.1931 5.09C25.4381 5.09 24.7213 5.42313 24.235 6.00563L20.5288 10.4156Z" fill="url(#paint1_linear_6_41)"/>
</g>
<defs>
<linearGradient id="paint0_linear_6_41" x1="13.1524" y1="13.0137" x2="13.1524" y2="38.75" gradientUnits="userSpaceOnUse">
<stop stop-color="#FA0066"/>
<stop offset="0.5" stop-color="#FB6533"/>
<stop offset="1" stop-color="#FBC900"/>
</linearGradient>
<linearGradient id="paint1_linear_6_41" x1="26.8485" y1="1.25" x2="26.8485" y2="26.9862" gradientUnits="userSpaceOnUse">
<stop stop-color="#FA0066"/>
<stop offset="0.5" stop-color="#FB6533"/>
<stop offset="1" stop-color="#FBC900"/>
</linearGradient>
</defs>
</svg>
